<svg width="200" height="200" viewBox="0 0 200 200" fill="none" xmlns="http://www.w3.org/2000/svg">
<g clip-path="url(#clip0_514_2)">
<path d="M50 2.5H150C176.234 2.5 197.5 23.7665 197.5 50V150C197.5 176.234 176.234 197.5 150 197.5H50C23.7665 197.5 2.5 176.234 2.5 150V50C2.5 23.7665 23.7665 2.5 50 2.5Z" stroke="#09B6D9" stroke-width="5"/>
<path d="M43.61 156.49L118.85 43.36H156.22L83.02 156.49H43.61Z" fill="#077AB8"/>
<path d="M120.39 42.85H155.71L117.83 81.24H88.65L77.39 93.02H40.02L78.41 54.11L97.87 55.14L86.6 67.93H95.56L120.39 42.85Z" fill="#09B6D9"/>
<path d="M26.71 77.66L48.73 55.65H67.66L44.12 79.2L26.71 77.66Z" fill="#09B6D9"/>
<path d="M79.6099 157.15H44.2899L82.1699 118.76H111.35L122.61 106.98H159.98L121.59 145.89L102.13 144.86L113.4 132.07H104.44L79.6099 157.15Z" fill="#09B6D9"/>
<path d="M173.29 122.34L151.27 144.35H132.34L155.88 120.8L173.29 122.34Z" fill="#09B6D9"/>
</g>
<defs>
<clipPath id="clip0_514_2">
<rect width="200" height="200" fill="white"/>
</clipPath>
</defs>
</svg>
