<?xml version="1.0" encoding="UTF-8"?>
<svg id="Layer_1" data-name="Layer 1" xmlns="http://www.w3.org/2000/svg" viewBox="0 0 200 200">
  <defs>
    <style>
      .cls-1 {
        fill: #7c0fb3;
      }

      .cls-2 {
        fill: #fcf;
      }

      .cls-3 {
        fill: #306;
      }
    </style>
  </defs>
  <rect class="cls-2" width="200" height="200" rx="50" ry="50"/>
  <g>
    <polygon class="cls-3" points="43.61 156.49 118.85 43.36 156.22 43.36 83.02 156.49 43.61 156.49"/>
    <g>
      <polygon class="cls-1" points="120.39 42.85 155.71 42.85 117.83 81.24 88.65 81.24 77.39 93.02 40.02 93.02 78.41 54.11 97.87 55.14 86.6 67.93 95.56 67.93 120.39 42.85"/>
      <polygon class="cls-1" points="26.71 77.66 48.73 55.65 67.66 55.65 44.12 79.2 26.71 77.66"/>
    </g>
    <g>
      <polygon class="cls-1" points="79.61 157.15 44.29 157.15 82.17 118.76 111.35 118.76 122.61 106.98 159.98 106.98 121.59 145.89 102.13 144.86 113.4 132.07 104.44 132.07 79.61 157.15"/>
      <polygon class="cls-1" points="173.29 122.34 151.27 144.35 132.34 144.35 155.88 120.8 173.29 122.34"/>
    </g>
  </g>
</svg>