<svg width="148" height="116" viewBox="0 0 148 116" fill="none" xmlns="http://www.w3.org/2000/svg">
<path d="M17.61 114.49L92.85 1.35999H130.22L57.02 114.49H17.61Z" fill="#330066"/>
<path d="M94.39 0.849976H129.71L91.83 39.24H62.65L51.39 51.02H14.02L52.41 12.11L71.87 13.14L60.6 25.93H69.56L94.39 0.849976Z" fill="#7C0FB3"/>
<path d="M0.710022 35.66L22.73 13.65H41.66L18.12 37.2L0.710022 35.66Z" fill="#7C0FB3"/>
<path d="M53.61 115.15H18.29L56.17 76.76H85.35L96.61 64.98H133.98L95.59 103.89L76.13 102.86L87.4 90.07H78.44L53.61 115.15Z" fill="#7C0FB3"/>
<path d="M147.29 80.3399L125.27 102.35H106.34L129.88 78.7999L147.29 80.3399Z" fill="#7C0FB3"/>
</svg>
