<svg width="330" height="257" viewBox="0 0 330 257" fill="none" xmlns="http://www.w3.org/2000/svg">
<g clip-path="url(#clip0_501_2)">
<path d="M37.96 255.37L207.05 1.15002H291.02L126.53 255.37H37.96Z" fill="#A75B04"/>
<path d="M210.5 0H289.87L204.75 86.27H139.19L113.88 112.73H29.9099L116.18 25.31L159.89 27.61L134.58 56.36H154.71L210.5 0Z" fill="#FF8A05"/>
<path d="M0 78.22L49.46 28.76H92.02L39.11 81.67L0 78.22Z" fill="#FF8A05"/>
<path d="M118.87 256.84H39.5L124.62 170.57H190.19L215.49 144.11H299.47L213.19 231.54L169.48 229.23L194.79 200.48H174.66L118.87 256.84Z" fill="#FF8A05"/>
<path d="M329.37 178.62L279.91 228.08H237.35L290.26 175.17L329.37 178.62Z" fill="#FF8A05"/>
</g>
<defs>
<clipPath id="clip0_501_2">
<rect width="329.37" height="256.84" fill="white"/>
</clipPath>
</defs>
</svg>
