<?xml version="1.0" encoding="UTF-8"?>
<svg id="Layer_1" data-name="Layer 1" xmlns="http://www.w3.org/2000/svg" viewBox="0 0 329.37 256.84">
  <defs>
    <style>
      .cls-1 {
        fill: #00aeef;
      }

      .cls-2 {
        fill: #03436e;
      }
    </style>
  </defs>
  <polygon class="cls-2" points="37.96 255.37 207.05 1.15 291.02 1.15 126.53 255.37 37.96 255.37"/>
  <g>
    <polygon class="cls-1" points="210.5 0 289.87 0 204.75 86.27 139.19 86.27 113.88 112.73 29.91 112.73 116.18 25.31 159.89 27.61 134.58 56.36 154.71 56.36 210.5 0"/>
    <polygon class="cls-1" points="0 78.22 49.46 28.76 92.02 28.76 39.11 81.67 0 78.22"/>
  </g>
  <g>
    <polygon class="cls-1" points="118.87 256.84 39.5 256.84 124.62 170.57 190.19 170.57 215.49 144.11 299.47 144.11 213.19 231.54 169.48 229.23 194.79 200.48 174.66 200.48 118.87 256.84"/>
    <polygon class="cls-1" points="329.37 178.62 279.91 228.08 237.35 228.08 290.26 175.17 329.37 178.62"/>
  </g>
</svg>